# 3ds Max Wavefront OBJ Exporter v0.97b - (c)2007 guruware
# File Created: 15.06.2017 09:10:48

#
# object Bits
#

v  -0.3412 1.0436 24.7495
v  -1.2361 0.8858 24.7495
v  -1.2019 1.1103 24.7864
v  0.3390 1.4134 26.2257
v  1.1950 1.1658 26.2661
v  1.1950 1.1103 24.7864
v  0.3390 1.3479 24.7864
v  -0.3458 1.3479 24.7864
v  -0.3458 1.4134 26.2257
v  -1.2019 1.1658 26.2661
v  0.2372 1.1640 23.9782
v  -0.2440 1.1640 23.9782
v  0.2228 1.0080 23.8640
v  -0.2296 1.0080 23.8640
v  0.3343 1.0436 24.7495
v  1.7087 1.3272 27.9480
v  1.7087 0.8593 27.9480
v  1.7087 0.8593 26.2359
v  1.7087 1.3272 26.3473
v  -1.7155 0.8593 26.2359
v  -1.7155 0.8593 27.9480
v  -1.7155 1.3272 27.9480
v  -1.7155 1.3272 26.3473
v  1.2293 0.8858 24.7495
v  -1.2361 0.9510 26.2080
v  1.2293 0.9510 26.2080
v  -0.0034 1.6697 27.7703
v  -0.0034 1.6697 26.1696
v  1.1386 0.4103 19.7722
v  1.1450 -0.5233 15.7173
v  1.0371 -0.5233 15.7173
v  1.0434 0.4103 19.7722
v  1.0447 0.5635 22.6872
v  1.1399 0.5635 22.6872
v  -1.0400 -0.5233 15.7173
v  -1.1479 -0.5233 15.7173
v  -1.1416 0.4103 19.7722
v  -1.0464 0.4103 19.7722
v  -1.1403 0.5635 22.6872
v  -1.0451 0.5635 22.6872
v  -1.4419 -0.3788 18.5628
v  1.4390 -0.3788 18.5628
v  1.4392 -0.5308 15.5604
v  -1.4416 -0.5308 15.5604
v  -1.4108 0.3801 22.4982
v  1.3892 0.3801 22.4982
v  1.3892 0.2418 19.7722
v  -1.4108 0.2418 19.7722
v  -1.8670 -0.0488 22.4982
v  1.8642 -0.0488 22.4982
v  1.8642 -0.2484 18.5628
v  -1.8670 -0.2484 18.5628
v  1.1463 -0.8892 22.6872
v  1.0383 -0.8892 22.6872
v  -1.1467 -0.8892 22.6872
v  -1.0387 -0.8892 22.6872
v  -1.5863 -1.0041 18.5628
v  -1.5861 -1.1596 15.4922
v  1.5834 -1.0041 18.5628
v  1.5837 -1.1596 15.4922
v  -0.0034 1.2018 26.0582
v  1.5763 -0.1915 19.6839
v  -1.5978 -0.1915 19.6839
v  2.0512 -0.9760 18.4745
v  -2.0541 -0.9760 18.4745
v  -1.5978 -0.0488 22.4982
v  1.5763 -0.0488 22.4982
v  -2.0541 -0.7718 22.4982
v  2.0512 -0.7718 22.4982
# 69 vertices

vn -0.0294 0.1669 -0.9855
vn 0.2792 0.9596 -0.0360
vn 0.2671 0.9627 -0.0438
vn 0.0000 0.9990 -0.0454
vn -0.2792 0.9596 -0.0360
vn -0.2671 0.9627 -0.0438
vn 0.0000 0.9751 -0.2218
vn 0.0000 0.5905 -0.8071
vn 0.9922 -0.0000 -0.1250
vn 0.9922 0.0000 -0.1250
vn -0.9922 0.0000 -0.1250
vn 1.0000 0.0000 -0.0000
vn -1.0000 0.0000 0.0000
vn -1.0000 -0.0000 0.0000
vn -0.0333 0.1201 -0.9922
vn 0.0212 0.1203 -0.9925
vn 0.0470 0.1694 -0.9844
vn -0.9874 0.1584 -0.0060
vn -0.9873 0.1590 -0.0060
vn -0.9883 0.1525 -0.0067
vn -0.9884 0.1519 -0.0068
vn 0.9883 0.1525 -0.0067
vn 0.9873 0.1590 -0.0060
vn 0.9874 0.1584 -0.0060
vn 0.9884 0.1519 -0.0068
vn 0.1961 0.9806 0.0000
vn -0.0000 1.0000 0.0000
vn -0.1961 0.9806 0.0000
vn 0.0000 0.9745 -0.2244
vn 0.0000 0.9986 -0.0525
vn 0.0000 0.9987 -0.0506
vn 0.0000 0.9987 -0.0507
vn 1.0000 0.0059 0.0000
vn 1.0000 0.0044 -0.0007
vn 1.0000 0.0048 -0.0005
vn 1.0000 0.0062 0.0001
vn -1.0000 0.0045 0.0003
vn -1.0000 0.0044 0.0002
vn -1.0000 0.0048 0.0004
vn -1.0000 0.0049 0.0004
vn -0.9743 0.2250 -0.0115
vn 0.9743 0.2250 -0.0113
vn 0.1457 0.2292 -0.9624
vn -0.0000 0.2317 -0.9728
vn -0.1457 0.2292 -0.9624
vn 0.0000 0.1997 -0.9798
vn 0.0000 0.1078 -0.9942
vn 0.0000 0.1205 -0.9927
vn -0.9164 0.3997 -0.0203
vn 0.9164 0.3997 -0.0203
vn -0.9680 0.2504 -0.0127
vn 0.9680 0.2504 -0.0127
# 52 vertex normals

vt 0.7691 0.5874 0.0000
vt 0.8275 0.5771 0.0000
vt 0.8253 0.5918 0.0000
vt 0.2518 0.2369 0.0000
vt 0.2492 0.1810 0.0000
vt 0.3457 0.1810 0.0000
vt 0.3457 0.2369 0.0000
vt 0.3457 0.2816 0.0000
vt 0.2518 0.2816 0.0000
vt 0.3457 0.3374 0.0000
vt 0.2492 0.3374 0.0000
vt 0.3985 0.2435 0.0000
vt 0.3985 0.2749 0.0000
vt 0.7627 0.5953 0.0000
vt 0.7323 0.5851 0.0000
vt 0.7618 0.5851 0.0000
vt 0.0000 0.7743 0.0000
vt 0.0649 0.7661 0.0000
vt 0.0619 0.7665 0.0000
vt 0.1749 0.4601 0.0000
vt 0.2228 0.4775 0.0000
vt 0.1656 0.4687 0.0000
vt 0.0619 0.8207 0.0000
vt 0.0649 0.8211 0.0000
vt 0.0000 0.8129 0.0000
vt 0.0990 0.6149 0.0000
vt 0.1476 0.5994 0.0000
vt 0.1565 0.6084 0.0000
vt 0.3187 0.6562 0.0000
vt 0.1813 0.6562 0.0000
vt 0.1902 0.6562 0.0000
vt 0.1813 0.9311 0.0000
vt 0.3187 0.9311 0.0000
vt 0.1902 0.9311 0.0000
vt 0.7694 0.6073 0.0000
vt 0.6666 0.5771 0.0000
vt 0.7250 0.5874 0.0000
vt 0.7247 0.6073 0.0000
vt 0.6688 0.5918 0.0000
vt 0.7313 0.5953 0.0000
vt 0.0059 0.6354 0.0000
vt 0.0000 0.6221 0.0000
vt 0.0960 0.6110 0.0000
vt 0.1006 0.6251 0.0000
vt 0.2260 0.4736 0.0000
vt 0.3214 0.4885 0.0000
vt 0.3150 0.5016 0.0000
vt 0.2208 0.4876 0.0000
vt 0.2439 0.1475 0.0000
vt 0.1510 0.2592 0.0000
vt 0.1394 0.1475 0.0000
vt 0.2555 0.2592 0.0000
vt 0.2439 0.3710 0.0000
vt 0.1394 0.3710 0.0000
vt 0.3277 0.3159 0.0000
vt 0.3327 0.5805 0.0000
vt 0.3257 0.5806 0.0000
vt 0.3215 0.3160 0.0000
vt 0.3182 0.1258 0.0000
vt 0.3244 0.1257 0.0000
vt 0.1901 0.5830 0.0000
vt 0.1831 0.5831 0.0000
vt 0.1789 0.3185 0.0000
vt 0.1851 0.3184 0.0000
vt 0.1756 0.1283 0.0000
vt 0.1819 0.1282 0.0000
vt 0.1607 0.3978 0.0000
vt 0.3486 0.3945 0.0000
vt 0.3521 0.5904 0.0000
vt 0.1641 0.5937 0.0000
vt 0.1582 0.1410 0.0000
vt 0.3409 0.1378 0.0000
vt 0.3440 0.3157 0.0000
vt 0.1613 0.3188 0.0000
vt 0.1284 0.1415 0.0000
vt 0.3719 0.1372 0.0000
vt 0.3764 0.3940 0.0000
vt 0.1329 0.3983 0.0000
vt 0.7974 1.0103 0.0000
vt 1.0022 1.0094 0.0000
vt 0.9927 0.7691 0.0000
vt 0.5164 0.8685 0.0000
vt 0.9918 0.7693 0.0000
vt 1.0009 1.0096 0.0000
vt 0.7961 1.0096 0.0000
vt 0.5153 0.8667 0.0000
vt 0.7123 0.7742 0.0000
vt 0.7033 0.8601 0.0000
vt 0.5051 0.8665 0.0000
vt 0.5034 0.7744 0.0000
vt 0.5062 0.8684 0.0000
vt 0.7044 0.8611 0.0000
vt 0.7132 0.7753 0.0000
vt 0.5044 0.7763 0.0000
vt 0.6353 0.5754 0.0000
vt 0.7470 0.6283 0.0000
vt 0.6353 0.6059 0.0000
vt 0.7470 0.5977 0.0000
vt 0.8588 0.5754 0.0000
vt 0.8588 0.6059 0.0000
vt 0.5577 0.6734 0.0000
vt 0.9380 0.6734 0.0000
vt 0.9156 0.7460 0.0000
vt 0.5801 0.7460 0.0000
vt 0.5568 0.5112 0.0000
vt 0.9366 0.5112 0.0000
vt 0.9193 0.6165 0.0000
vt 0.5741 0.6165 0.0000
vt 0.5008 0.5420 0.0000
vt 0.9927 0.5420 0.0000
vt 0.9703 0.6638 0.0000
vt 0.5232 0.6638 0.0000
vt 0.9627 0.8675 0.0000
vt 0.9882 0.9980 0.0000
vt 0.7957 0.9986 0.0000
vt 0.7788 0.8639 0.0000
vt 0.7970 0.9993 0.0000
vt 0.9894 0.9979 0.0000
vt 0.9638 0.8674 0.0000
vt 0.7800 0.8646 0.0000
vt 0.9797 0.7773 0.0000
vt 0.7035 0.8686 0.0000
vt 0.7066 0.7762 0.0000
vt 0.7047 0.8696 0.0000
vt 0.9806 0.7772 0.0000
vt 0.7075 0.7773 0.0000
# 126 texture coords

g Bits
s 1
f 1/1/1 2/2/1 3/3/1 
f 4/4/2 5/5/2 6/6/2 
f 4/4/3 6/6/3 7/7/3 
f 7/7/4 8/8/4 9/9/4 
f 7/7/4 9/9/4 4/4/4 
f 3/10/5 10/11/5 9/9/5 
f 3/10/6 9/9/6 8/8/6 
f 11/12/7 12/13/7 8/8/7 
f 11/12/7 8/8/7 7/7/7 
f 12/14/8 13/15/8 14/16/8 
f 11/17/9 7/18/9 15/19/9 
f 11/20/10 15/21/10 13/22/10 
f 1/23/11 8/24/11 12/25/11 
f 1/26/11 12/27/11 14/28/11 
f 16/29/12 17/29/12 18/30/12 
f 16/29/12 18/30/12 19/31/12 
f 20/32/13 21/33/13 22/33/13 
f 20/32/14 22/33/14 23/34/14 
f 1/1/15 3/3/15 8/35/15 
f 24/36/16 15/37/16 7/38/16 
f 24/36/17 7/38/17 6/39/17 
f 12/14/8 11/40/8 13/15/8 
f 25/41/18 10/42/19 3/43/20 
f 25/41/18 3/43/20 2/44/21 
f 6/45/22 5/46/23 26/47/24 
f 6/45/22 26/47/24 24/48/25 
f 19/49/26 27/50/27 16/51/26 
f 19/49/26 28/52/27 27/50/27 
f 27/50/27 28/52/27 23/53/28 
f 27/50/27 23/53/28 22/54/28 
f 29/55/29 30/56/29 31/57/29 
f 29/55/29 31/57/29 32/58/29 
f 32/58/30 33/59/30 34/60/30 
f 32/58/30 34/60/30 29/55/30 
f 35/61/29 36/62/29 37/63/29 
f 35/61/29 37/63/29 38/64/29 
f 39/65/30 40/66/30 38/64/30 
f 39/65/30 38/64/30 37/63/30 
f 41/67/31 42/68/31 43/69/31 
f 41/67/31 43/69/31 44/70/31 
f 45/71/32 46/72/32 47/73/32 
f 45/71/32 47/73/32 48/74/32 
f 49/75/32 50/76/32 51/77/32 
f 49/75/32 51/77/32 52/78/32 
f 29/79/33 34/80/34 53/81/35 
f 29/79/33 53/81/35 30/82/36 
f 54/83/37 33/84/38 32/85/39 
f 54/83/37 32/85/39 31/86/40 
f 55/83/37 39/84/38 37/85/39 
f 55/83/37 37/85/39 36/86/40 
f 38/79/33 40/80/34 56/81/35 
f 38/79/33 56/81/35 35/82/36 
f 57/87/41 41/88/41 44/89/41 
f 57/87/41 44/89/41 58/90/41 
f 43/91/42 42/92/42 59/93/42 
f 43/91/42 59/93/42 60/94/42 
f 18/95/43 28/96/44 19/97/43 
f 18/95/43 61/98/44 28/96/44 
f 28/96/44 61/98/44 20/99/45 
f 28/96/44 20/99/45 23/100/45 
f 62/101/46 63/102/46 48/103/46 
f 62/101/46 48/103/46 47/104/46 
f 60/105/47 58/106/47 44/107/47 
f 60/105/47 44/107/47 43/108/47 
f 64/109/48 65/110/48 52/111/48 
f 64/109/48 52/111/48 51/112/48 
f 66/113/49 45/114/49 48/115/49 
f 66/113/49 48/115/49 63/116/49 
f 47/117/50 46/118/50 67/119/50 
f 47/117/50 67/119/50 62/120/50 
f 68/121/51 49/113/51 52/122/51 
f 68/121/51 52/122/51 65/123/51 
f 51/124/52 50/119/52 69/125/52 
f 51/124/52 69/125/52 64/126/52 
# 74 faces

