# 3ds Max Wavefront OBJ Exporter v0.97b - (c)2007 guruware
# File Created: 15.06.2017 09:10:47

#
# object Center_Hull
#

v  9.0681 2.4408 62.9858
v  9.0681 1.1264 37.0770
v  9.0681 1.3852 37.0770
v  0.0000 3.9835 52.5438
v  0.0000 3.7246 52.5438
v  -3.6563 3.0422 53.5056
v  -3.6563 3.3010 53.5056
v  -9.0680 1.3852 37.0770
v  -9.0680 1.1264 37.0770
v  -9.0680 2.4408 62.9858
v  -9.0680 2.6996 62.9858
v  0.0000 4.3365 64.6050
v  0.0000 4.5954 64.6050
v  9.0681 2.6996 62.9858
v  0.0000 4.4011 65.8782
v  11.9847 1.8956 63.7380
v  11.9847 0.1585 29.4961
v  0.0000 2.4034 26.4999
v  11.9847 1.7244 63.7380
v  11.9847 -0.0128 29.4961
v  0.0000 2.2322 26.4999
v  -11.9847 -0.0128 29.4961
v  -11.9847 0.1585 29.4961
v  0.0000 0.9009 20.5076
v  0.0000 0.7297 20.5076
v  -7.8756 -0.6934 23.5038
v  -7.8756 -0.5222 23.5038
v  -7.8756 -0.2169 29.5213
v  0.0000 1.2701 27.7840
v  0.0000 1.7895 65.0221
v  -11.6422 1.7494 62.8820
v  -11.6422 -0.6475 62.8820
v  11.6423 1.7494 62.8820
v  11.6423 -0.6475 62.8820
v  3.6563 2.1401 35.7241
v  3.6563 2.3989 35.7241
v  -7.5903 2.9595 56.3278
v  -7.5903 3.0564 58.2374
v  -3.7325 4.6136 58.1521
v  -3.7326 4.5174 56.2551
v  -0.8780 5.2225 58.1224
v  -0.8780 5.1262 56.2255
v  3.7326 4.6136 58.1521
v  7.5903 3.0564 58.2374
v  7.5903 2.9595 56.3278
v  3.7326 4.5174 56.2551
v  0.8780 5.2225 58.1224
v  0.8780 5.1262 56.2255
v  1.1386 4.4883 48.7265
v  1.1450 3.5547 44.6716
v  1.0371 3.5547 44.6716
v  1.0434 4.4883 48.7265
v  1.0447 4.6415 51.6414
v  1.1399 4.6415 51.6414
v  -1.0400 3.5547 44.6716
v  -1.1479 3.5547 44.6716
v  -1.1416 4.4883 48.7265
v  -1.0464 4.4883 48.7265
v  -1.1403 4.6415 51.6414
v  -1.0451 4.6415 51.6414
v  -3.7061 4.3279 55.8045
v  -3.7252 3.8771 55.6401
v  -3.7252 4.0379 58.8101
v  -3.7061 4.4698 58.6009
v  3.7252 4.0379 58.8101
v  3.7252 3.8771 55.6401
v  3.7061 4.3279 55.8045
v  3.7061 4.4698 58.6009
v  1.5763 3.8864 48.6381
v  -1.5978 3.8864 48.6381
v  -1.4108 4.3198 48.7265
v  1.3892 4.3198 48.7265
v  -7.7441 2.9029 55.8459
v  -7.7126 2.2647 55.7337
v  -7.7126 2.4253 58.8994
v  -7.7441 3.0489 58.7231
v  -4.8234 3.6313 55.3830
v  -4.7962 2.8904 55.2333
v  -4.7962 3.0984 59.3334
v  -4.8234 3.8204 59.1094
v  7.7126 2.4253 58.8994
v  7.7126 2.2647 55.7337
v  7.7441 2.9029 55.8459
v  7.7441 3.0489 58.7231
v  4.7962 3.0984 59.3334
v  4.7962 2.8904 55.2333
v  4.8234 3.6313 55.3830
v  4.8234 3.8204 59.1094
v  2.0512 3.1020 47.4287
v  -2.0541 3.1020 47.4287
v  -1.8670 3.8295 47.5170
v  1.8642 3.8295 47.5170
v  -4.8029 3.6703 58.6913
v  -4.8029 3.5243 55.8142
v  -1.0358 5.0342 58.5723
v  -1.0358 4.8923 55.7759
v  -0.9684 4.6352 59.0681
v  -0.9684 4.4462 55.3417
v  4.8029 3.5243 55.8142
v  4.8029 3.6703 58.6913
v  1.0358 4.8923 55.7759
v  1.0358 5.0342 58.5723
v  0.9684 4.4462 55.3417
v  0.9684 4.6352 59.0681
v  -1.4419 3.6992 47.5170
v  1.4390 3.6992 47.5170
v  1.4393 3.5472 44.5146
v  -1.4416 3.5472 44.5146
v  -1.4108 4.4581 51.4524
v  1.3892 4.4581 51.4524
v  -1.8670 4.0292 51.4524
v  1.8642 4.0292 51.4524
v  -0.6495 3.7899 58.2015
v  -0.6495 3.6931 56.2918
v  -4.7046 2.9003 55.7012
v  -4.7046 3.0609 58.8669
v  -0.9684 4.4598 55.6105
v  -0.9684 4.6207 58.7806
v  -0.8547 3.7235 55.1910
v  -0.8547 3.9316 59.2911
v  0.6496 3.7899 58.2015
v  0.6496 3.6931 56.2918
v  4.7046 2.9003 55.7012
v  4.7046 3.0609 58.8669
v  0.9684 4.4598 55.6105
v  0.9684 4.6207 58.7806
v  0.8547 3.7235 55.1910
v  0.8547 3.9316 59.2911
v  1.1463 3.1887 51.6414
v  1.0383 3.1887 51.6414
v  -1.1467 3.1887 51.6414
v  -1.0387 3.1887 51.6414
v  -1.5863 3.0739 47.5170
v  -1.5861 2.9184 44.4464
v  1.5834 3.0739 47.5170
v  1.5837 2.9184 44.4464
v  -3.6563 2.1401 35.7241
v  -3.6563 2.3989 35.7241
v  3.6563 3.0422 53.5056
v  3.6563 3.3010 53.5056
v  -11.9847 1.8956 63.7380
v  -7.5332 -1.1795 29.4457
v  -7.5332 -0.3235 29.4457
v  -7.5332 -0.5815 24.3598
v  -7.5332 -1.4376 24.3598
v  7.5332 -0.5815 24.3598
v  7.5332 -0.3235 29.4457
v  7.5332 -1.1795 29.4457
v  7.5332 -1.4376 24.3598
v  0.0000 4.2299 65.8782
v  -11.9847 1.7244 63.7380
v  -7.8756 -0.3881 29.5213
v  7.8756 -0.6934 23.5038
v  7.8756 -0.5222 23.5038
v  7.8757 -0.3881 29.5213
v  7.8757 -0.2169 29.5213
v  0.0000 0.7948 21.7917
v  -1.5978 4.0292 51.4524
v  1.5763 4.0292 51.4524
v  -2.0541 3.3061 51.4524
v  2.0512 3.3061 51.4524
v  0.0000 4.1865 65.0221
v  -11.6423 0.0992 30.3521
v  -11.6423 -2.2978 30.3521
v  0.0000 2.2973 27.7840
v  0.0000 -0.0996 27.7840
v  11.6423 -2.2978 30.3521
v  11.6423 0.0992 30.3521
v  0.0000 -0.0612 21.7917
# 169 vertices

vn 1.0000 0.0000 -0.0000
vn -0.2544 0.0000 -0.9671
vn -1.0000 0.0000 0.0000
vn -0.1758 0.0000 0.9844
vn -0.1959 0.9794 -0.0497
vn 0.1959 0.9794 -0.0497
vn -0.2425 0.0000 -0.9701
vn -0.3556 0.0000 -0.9346
vn -0.1808 -0.0000 0.9835
vn 0.1808 0.0000 0.9835
vn 0.2425 0.0000 -0.9701
vn -0.3748 0.9259 -0.0470
vn -0.2930 0.9549 -0.0484
vn -0.2088 0.9767 -0.0495
vn -0.2088 0.9767 -0.0496
vn 0.2930 0.9549 -0.0484
vn 0.3748 0.9259 -0.0470
vn 0.2088 0.9767 -0.0495
vn 0.2088 0.9767 -0.0496
vn 0.0000 0.9745 -0.2244
vn 0.0000 0.9986 -0.0525
vn -0.9991 0.0431 -0.0022
vn 0.9991 0.0431 -0.0022
vn 0.0000 0.1997 -0.9798
vn -0.9988 -0.0497 0.0025
vn -0.9993 -0.0370 0.0019
vn 0.9988 -0.0497 0.0025
vn 0.9993 -0.0370 0.0019
vn 0.0000 0.1205 -0.9927
vn -0.2070 0.9771 -0.0496
vn -0.2071 0.9771 -0.0496
vn 0.2070 0.9771 -0.0496
vn 0.2071 0.9771 -0.0496
vn 0.0000 0.9987 -0.0506
vn 0.0000 0.9987 -0.0507
vn -0.0012 0.0553 0.9985
vn -0.0013 0.0549 0.9985
vn -0.0009 0.0565 0.9984
vn -0.0008 0.0568 0.9984
vn -0.0004 -0.0458 -0.9989
vn -0.0005 -0.0463 -0.9989
vn -0.0005 -0.0462 -0.9989
vn -0.0003 -0.0458 -0.9990
vn -0.0467 0.1708 -0.9842
vn -0.0466 0.2695 0.9619
vn -0.0829 0.3446 -0.9351
vn -0.0829 0.4375 0.8954
vn -0.0519 0.1960 -0.9792
vn -0.0519 0.2941 0.9544
vn 0.0009 0.0565 0.9984
vn 0.0013 0.0549 0.9985
vn 0.0012 0.0553 0.9985
vn 0.0008 0.0568 0.9984
vn 0.0005 -0.0462 -0.9989
vn 0.0005 -0.0463 -0.9989
vn 0.0004 -0.0458 -0.9989
vn 0.0003 -0.0458 -0.9990
vn 0.0467 0.1708 -0.9842
vn 0.0466 0.2695 0.9619
vn 0.0829 0.3446 -0.9351
vn 0.0829 0.4375 0.8954
vn 0.0519 0.1960 -0.9792
vn 0.0519 0.2941 0.9544
vn 1.0000 0.0059 0.0000
vn 1.0000 0.0044 -0.0007
vn 1.0000 0.0048 -0.0005
vn 1.0000 0.0062 0.0001
vn -1.0000 0.0045 0.0003
vn -1.0000 0.0044 0.0002
vn -1.0000 0.0048 0.0004
vn -1.0000 0.0049 0.0004
vn -0.9743 0.2250 -0.0115
vn 0.9743 0.2250 -0.0113
vn 0.2544 -0.0000 -0.9671
vn 0.2544 0.0000 -0.9671
vn 0.1758 0.0000 0.9844
vn -1.0000 -0.0000 0.0000
vn 0.3556 0.0000 -0.9346
vn 0.1959 -0.9794 0.0497
vn -0.0000 -0.9987 0.0507
vn 0.0000 -0.9987 0.0507
vn -0.1959 -0.9794 0.0497
vn 0.0000 0.1078 -0.9942
vn -0.9164 0.3997 -0.0203
vn 0.9164 0.3997 -0.0203
vn -0.9680 0.2504 -0.0127
vn 0.9680 0.2504 -0.0127
vn 0.0000 0.0000 1.0000
vn -0.1808 0.0000 0.9835
vn -0.2154 0.0000 -0.9765
vn -0.0000 0.0000 -1.0000
vn 0.2154 0.0000 -0.9765
vn -0.3227 0.0000 -0.9465
vn 0.3227 0.0000 -0.9465
# 94 vertex normals

vt 0.5970 0.5141 0.0000
vt 0.9433 0.5119 0.0000
vt 0.9426 0.5269 0.0000
vt 1.6683 0.5217 0.0000
vt 1.6695 0.5154 0.0000
vt 1.7617 0.5144 0.0000
vt 1.7606 0.5208 0.0000
vt 1.9370 0.5156 0.0000
vt 1.9373 0.5217 0.0000
vt 1.3245 0.5215 0.0000
vt 1.3242 0.5154 0.0000
vt 1.3740 0.5228 0.0000
vt 1.3727 0.5165 0.0000
vt 1.6025 0.5157 0.0000
vt 1.6038 0.5220 0.0000
vt 1.9324 0.5238 0.0000
vt 1.3477 0.5207 0.0000
vt 1.9326 0.5179 0.0000
vt 0.2457 0.7571 0.0000
vt 0.0674 0.9420 0.0000
vt 0.2416 0.9742 0.0000
vt 0.2440 1.0025 0.0000
vt 0.0139 0.9600 0.0000
vt 0.0057 0.1709 0.0000
vt 0.3096 0.1319 0.0000
vt 1.7730 0.5190 0.0000
vt 1.4049 0.5208 0.0000
vt 1.4049 0.5189 0.0000
vt 1.7731 0.5172 0.0000
vt 1.5728 0.5206 0.0000
vt 1.5736 0.5164 0.0000
vt 1.8760 0.5158 0.0000
vt 1.8752 0.5200 0.0000
vt 1.6002 0.5214 0.0000
vt 1.6010 0.5173 0.0000
vt 1.7995 0.5182 0.0000
vt 1.7987 0.5223 0.0000
vt 0.0821 0.0631 0.0000
vt 0.0821 0.1827 0.0000
vt 0.3072 0.1543 0.0000
vt 0.3072 0.0098 0.0000
vt 0.6354 0.5085 0.0000
vt 0.3218 0.5066 0.0000
vt 0.3218 0.3950 0.0000
vt 0.9491 0.5066 0.0000
vt 0.9491 0.3950 0.0000
vt 0.7905 0.5126 0.0000
vt 0.9383 0.5109 0.0000
vt 0.9444 0.5246 0.0000
vt 0.7966 0.5263 0.0000
vt 0.0896 0.7830 0.0000
vt 0.0896 0.8210 0.0000
vt 0.1637 0.8193 0.0000
vt 0.1637 0.7816 0.0000
vt 0.2185 0.8187 0.0000
vt 0.2185 0.7810 0.0000
vt 0.1662 0.8224 0.0000
vt 0.0921 0.8240 0.0000
vt 0.0921 0.7861 0.0000
vt 0.1662 0.7847 0.0000
vt 0.2210 0.8218 0.0000
vt 0.2210 0.7841 0.0000
vt 0.2140 0.5531 0.0000
vt 0.2138 0.4725 0.0000
vt 0.2159 0.4725 0.0000
vt 0.2158 0.5531 0.0000
vt 0.2158 0.6110 0.0000
vt 0.2139 0.6110 0.0000
vt 0.2134 0.4694 0.0000
vt 0.2113 0.4694 0.0000
vt 0.2114 0.5500 0.0000
vt 0.2133 0.5500 0.0000
vt 0.2115 0.6079 0.0000
vt 0.2133 0.6079 0.0000
vt 1.7466 0.4591 0.0000
vt 1.7623 0.4973 0.0000
vt 1.4895 0.4948 0.0000
vt 1.5059 0.4570 0.0000
vt 0.8853 0.4988 0.0000
vt 0.5979 0.4977 0.0000
vt 0.6150 0.4577 0.0000
vt 0.8685 0.4588 0.0000
vt 1.3876 0.4641 0.0000
vt 1.6419 0.4641 0.0000
vt 1.6269 0.4988 0.0000
vt 1.4026 0.4988 0.0000
vt 1.8352 0.4585 0.0000
vt 1.8455 0.4988 0.0000
vt 1.6422 0.5041 0.0000
vt 1.6504 0.4633 0.0000
vt 1.8521 0.4502 0.0000
vt 1.8645 0.4971 0.0000
vt 1.6011 0.4993 0.0000
vt 1.6127 0.4522 0.0000
vt 0.6859 0.5013 0.0000
vt 0.4925 0.5005 0.0000
vt 0.5015 0.4620 0.0000
vt 0.6773 0.4627 0.0000
vt 0.8868 0.4981 0.0000
vt 0.6516 0.4971 0.0000
vt 0.6625 0.4552 0.0000
vt 0.8763 0.4561 0.0000
vt 1.3496 0.4012 0.0000
vt 1.6785 0.4012 0.0000
vt 1.6635 0.4595 0.0000
vt 1.3646 0.4595 0.0000
vt 0.0867 0.8306 0.0000
vt 0.1432 0.8300 0.0000
vt 0.1432 0.7728 0.0000
vt 0.0867 0.7735 0.0000
vt 0.1642 0.8282 0.0000
vt 0.2155 0.8276 0.0000
vt 0.2155 0.7721 0.0000
vt 0.1642 0.7726 0.0000
vt 0.1428 0.8383 0.0000
vt 0.2168 0.8375 0.0000
vt 0.2168 0.7634 0.0000
vt 0.1428 0.7643 0.0000
vt 0.1456 0.7759 0.0000
vt 0.1456 0.8331 0.0000
vt 0.0891 0.8337 0.0000
vt 0.0891 0.7765 0.0000
vt 0.2180 0.7751 0.0000
vt 0.2180 0.8307 0.0000
vt 0.1667 0.8313 0.0000
vt 0.1667 0.7757 0.0000
vt 0.2193 0.7665 0.0000
vt 0.2193 0.8406 0.0000
vt 0.1452 0.8414 0.0000
vt 0.1452 0.7673 0.0000
vt 0.2057 0.5260 0.0000
vt 0.2712 0.5752 0.0000
vt 0.2712 0.5155 0.0000
vt 0.2057 0.4663 0.0000
vt 0.2063 0.6042 0.0000
vt 0.2703 0.6534 0.0000
vt 0.2703 0.5992 0.0000
vt 0.2063 0.5500 0.0000
vt 0.1975 0.6042 0.0000
vt 0.2794 0.6534 0.0000
vt 0.2794 0.5752 0.0000
vt 0.1975 0.5260 0.0000
vt 0.8643 0.3892 0.0000
vt 0.8699 0.4988 0.0000
vt 0.6491 0.4986 0.0000
vt 0.3391 0.4441 0.0000
vt 0.6549 0.5039 0.0000
vt 0.8762 0.5041 0.0000
vt 0.8706 0.3942 0.0000
vt 0.3443 0.4492 0.0000
vt 0.3320 0.4474 0.0000
vt 0.5599 0.4472 0.0000
vt 0.5573 0.3993 0.0000
vt 0.3243 0.3996 0.0000
vt 0.5527 0.3990 0.0000
vt 0.5551 0.4456 0.0000
vt 0.3276 0.4459 0.0000
vt 0.3201 0.3993 0.0000
vt 0.6539 0.4895 0.0000
vt 0.8608 0.4892 0.0000
vt 0.8590 0.4561 0.0000
vt 0.6454 0.4563 0.0000
vt 0.8538 0.4557 0.0000
vt 0.8553 0.4873 0.0000
vt 0.6488 0.4875 0.0000
vt 0.6406 0.4559 0.0000
vt 0.5601 0.4554 0.0000
vt 0.8588 0.4551 0.0000
vt 0.8558 0.3997 0.0000
vt 0.5504 0.4000 0.0000
vt 0.8513 0.4029 0.0000
vt 0.8540 0.4567 0.0000
vt 0.5559 0.4571 0.0000
vt 0.5465 0.4032 0.0000
vt 0.6543 0.4986 0.0000
vt 0.8752 0.4988 0.0000
vt 0.8695 0.3892 0.0000
vt 0.3444 0.4441 0.0000
vt 0.8712 0.3942 0.0000
vt 0.8769 0.5041 0.0000
vt 0.6556 0.5039 0.0000
vt 0.3449 0.4492 0.0000
vt 0.5580 0.3993 0.0000
vt 0.5605 0.4472 0.0000
vt 0.3326 0.4474 0.0000
vt 0.3249 0.3996 0.0000
vt 0.3329 0.4459 0.0000
vt 0.5603 0.4456 0.0000
vt 0.5580 0.3990 0.0000
vt 0.3254 0.3993 0.0000
vt 0.8597 0.4561 0.0000
vt 0.8615 0.4892 0.0000
vt 0.6546 0.4895 0.0000
vt 0.6460 0.4563 0.0000
vt 0.6540 0.4875 0.0000
vt 0.8605 0.4873 0.0000
vt 0.8590 0.4557 0.0000
vt 0.6458 0.4559 0.0000
vt 0.8565 0.3997 0.0000
vt 0.8595 0.4551 0.0000
vt 0.5607 0.4554 0.0000
vt 0.5510 0.4000 0.0000
vt 0.5611 0.4571 0.0000
vt 0.8592 0.4567 0.0000
vt 0.8566 0.4029 0.0000
vt 0.5518 0.4032 0.0000
vt 0.7015 0.9850 0.0000
vt 0.9545 0.9913 0.0000
vt 0.9495 0.7581 0.0000
vt 0.3471 0.8607 0.0000
vt 0.9447 0.7742 0.0000
vt 0.9494 1.0074 0.0000
vt 0.6964 1.0003 0.0000
vt 0.3421 0.8747 0.0000
vt 0.5871 0.7805 0.0000
vt 0.5891 0.8809 0.0000
vt 0.3285 0.8745 0.0000
vt 0.3206 0.7739 0.0000
vt 0.3334 0.8605 0.0000
vt 0.5940 0.8660 0.0000
vt 0.5919 0.7656 0.0000
vt 0.3254 0.7600 0.0000
vt 1.8252 0.5123 0.0000
vt 1.8249 0.5187 0.0000
vt 1.3833 0.5208 0.0000
vt 1.3836 0.5143 0.0000
vt 1.5611 0.5228 0.0000
vt 1.5622 0.5164 0.0000
vt 1.6988 0.5162 0.0000
vt 1.6976 0.5225 0.0000
vt 1.5793 0.5146 0.0000
vt 1.6715 0.5139 0.0000
vt 1.6727 0.5202 0.0000
vt 1.5805 0.5209 0.0000
vt 1.8786 0.5219 0.0000
vt 1.4369 0.5217 0.0000
vt 1.4366 0.5153 0.0000
vt 1.8783 0.5155 0.0000
vt 1.4805 0.5157 0.0000
vt 1.7102 0.5165 0.0000
vt 1.7089 0.5228 0.0000
vt 1.4791 0.5220 0.0000
vt 0.1631 0.2916 0.0000
vt 0.0592 0.3185 0.0000
vt 0.1631 0.6450 0.0000
vt 0.0699 0.9451 0.0000
vt 0.0617 0.3216 0.0000
vt 0.1656 0.2947 0.0000
vt 0.1656 0.6480 0.0000
vt 0.2481 0.7601 0.0000
vt 0.2440 0.9772 0.0000
vt 0.0032 0.1679 0.0000
vt 0.0114 0.9569 0.0000
vt 0.2416 0.9995 0.0000
vt 0.3072 0.1288 0.0000
vt 1.4596 0.4939 0.0000
vt 1.4577 0.4549 0.0000
vt 1.6901 0.4550 0.0000
vt 1.6921 0.4940 0.0000
vt 1.3612 0.4099 0.0000
vt 1.6694 0.4057 0.0000
vt 1.6675 0.4575 0.0000
vt 1.3593 0.4617 0.0000
vt 1.9356 0.5191 0.0000
vt 1.6319 0.5234 0.0000
vt 1.6327 0.5192 0.0000
vt 1.9364 0.5149 0.0000
vt 1.8831 0.5189 0.0000
vt 1.8833 0.5216 0.0000
vt 1.3310 0.5215 0.0000
vt 1.3309 0.5187 0.0000
vt 1.6758 0.5168 0.0000
vt 1.6766 0.5209 0.0000
vt 1.3729 0.5219 0.0000
vt 1.3721 0.5178 0.0000
vt 1.7913 0.5181 0.0000
vt 1.7915 0.5223 0.0000
vt 1.6421 0.5223 0.0000
vt 1.6418 0.5181 0.0000
vt 1.4449 0.5183 0.0000
vt 1.7473 0.5189 0.0000
vt 1.7481 0.5231 0.0000
vt 1.4456 0.5225 0.0000
vt 1.4420 0.5182 0.0000
vt 1.6405 0.5173 0.0000
vt 1.6413 0.5214 0.0000
vt 1.4428 0.5223 0.0000
vt 1.7453 0.5226 0.0000
vt 1.5958 0.5233 0.0000
vt 1.5960 0.5190 0.0000
vt 1.7455 0.5183 0.0000
vt 0.1200 0.3256 0.0000
vt 0.1203 0.3268 0.0000
vt 0.0994 0.3268 0.0000
vt 0.1024 0.3256 0.0000
vt 0.0891 0.2995 0.0000
vt 0.0935 0.2995 0.0000
vt 0.1024 0.2735 0.0000
vt 0.0994 0.2723 0.0000
vt 0.1200 0.2735 0.0000
vt 0.1203 0.2723 0.0000
vt 0.3096 0.1574 0.0000
vt 0.0846 0.1858 0.0000
vt 0.0846 0.0662 0.0000
vt 0.3096 0.0128 0.0000
vt 0.5748 0.4409 0.0000
vt 0.7021 0.4409 0.0000
vt 0.6963 0.4926 0.0000
vt 0.5806 0.4926 0.0000
vt 0.9310 0.9102 0.0000
vt 0.9324 0.9791 0.0000
vt 0.6959 0.9732 0.0000
vt 0.6868 0.9042 0.0000
vt 0.7009 0.9580 0.0000
vt 0.9375 0.9630 0.0000
vt 0.9360 0.8942 0.0000
vt 0.6918 0.8890 0.0000
vt 0.9287 0.7941 0.0000
vt 0.5895 0.9018 0.0000
vt 0.5795 0.7855 0.0000
vt 0.5945 0.8869 0.0000
vt 0.9336 0.7781 0.0000
vt 0.5843 0.7707 0.0000
vt 0.6354 0.6200 0.0000
vt 0.9493 0.3816 0.0000
vt 0.9525 0.6288 0.0000
vt 0.3193 0.6250 0.0000
vt 0.3181 0.3819 0.0000
vt 0.9491 0.4071 0.0000
vt 0.9491 0.5187 0.0000
vt 0.6354 0.6210 0.0000
vt 0.6354 0.5094 0.0000
vt 0.3218 0.4071 0.0000
vt 0.3218 0.5187 0.0000
vt 0.3182 0.6259 0.0000
vt 0.9514 0.6288 0.0000
vt 0.9481 0.3816 0.0000
vt 0.3169 0.3828 0.0000
vt 0.8384 0.4472 0.0000
vt 0.8384 0.4870 0.0000
vt 0.6354 0.5511 0.0000
vt 0.6354 0.5112 0.0000
vt 0.4325 0.4870 0.0000
vt 0.4325 0.4472 0.0000
vt 0.2433 0.2995 0.0000
vt 0.2462 0.2995 0.0000
vt 0.2388 0.3411 0.0000
vt 0.2388 0.2580 0.0000
vt 0.2358 0.2592 0.0000
vt 0.1202 0.2580 0.0000
vt 0.1232 0.2592 0.0000
vt 0.1098 0.2995 0.0000
vt 0.2358 0.3399 0.0000
vt 0.1202 0.3411 0.0000
vt 0.1232 0.3399 0.0000
vt 0.1143 0.2995 0.0000
# 356 texture coords

g Center_Hull
s 1
f 1/1/1 2/2/1 3/3/1 
f 4/4/2 5/5/2 6/6/2 
f 4/4/2 6/6/2 7/7/2 
f 8/8/3 9/9/3 10/10/3 
f 8/8/3 10/10/3 11/11/3 
f 11/12/4 10/13/4 12/14/4 
f 11/12/4 12/14/4 13/15/4 
f 1/16/1 3/17/1 14/18/1 
f 4/19/5 11/20/5 13/21/5 
f 15/22/6 16/23/6 17/24/6 
f 15/22/6 17/24/6 18/25/6 
f 19/26/1 20/27/1 17/28/1 
f 19/26/1 17/28/1 16/29/1 
f 18/30/7 21/31/7 22/32/7 
f 18/30/7 22/32/7 23/33/7 
f 24/34/8 25/35/8 26/36/8 
f 24/34/8 26/36/8 27/37/8 
f 27/38/5 28/39/5 29/40/5 
f 27/38/5 29/40/5 24/41/5 
f 30/42/9 31/43/9 32/44/9 
f 33/45/10 30/42/10 34/46/10 
f 2/47/11 35/48/11 36/49/11 
f 2/47/11 36/49/11 3/50/11 
f 37/51/12 38/52/12 39/53/13 
f 37/51/12 39/53/13 40/54/13 
f 41/55/14 40/54/13 39/53/13 
f 41/55/14 42/56/15 40/54/13 
f 43/57/16 44/58/17 45/59/17 
f 43/57/16 45/59/17 46/60/16 
f 46/60/16 47/61/18 43/57/16 
f 46/60/16 48/62/19 47/61/18 
f 49/63/20 50/64/20 51/65/20 
f 49/63/20 51/65/20 52/66/20 
f 52/66/21 53/67/21 54/68/21 
f 52/66/21 54/68/21 49/63/21 
f 55/69/20 56/70/20 57/71/20 
f 55/69/20 57/71/20 58/72/20 
f 59/73/21 60/74/21 58/72/21 
f 59/73/21 58/72/21 57/71/21 
f 61/75/22 62/76/22 63/77/22 
f 61/75/22 63/77/22 64/78/22 
f 65/79/23 66/80/23 67/81/23 
f 65/79/23 67/81/23 68/82/23 
f 69/83/24 70/84/24 71/85/24 
f 69/83/24 71/85/24 72/86/24 
f 73/87/25 74/88/25 75/89/25 
f 73/87/25 75/89/25 76/90/25 
f 77/91/26 78/92/26 79/93/26 
f 77/91/26 79/93/26 80/94/26 
f 81/95/27 82/96/27 83/97/27 
f 81/95/27 83/97/27 84/98/27 
f 85/99/28 86/100/28 87/101/28 
f 85/99/28 87/101/28 88/102/28 
f 89/103/29 90/104/29 91/105/29 
f 89/103/29 91/105/29 92/106/29 
f 76/107/30 93/108/30 94/109/30 
f 76/107/30 94/109/30 73/110/30 
f 64/111/31 95/112/31 96/113/31 
f 64/111/31 96/113/31 61/114/31 
f 80/115/31 97/116/31 98/117/31 
f 80/115/31 98/117/31 77/118/31 
f 99/119/32 100/120/32 84/121/32 
f 99/119/32 84/121/32 83/122/32 
f 101/123/33 102/124/33 68/125/33 
f 101/123/33 68/125/33 67/126/33 
f 103/127/33 104/128/33 88/129/33 
f 103/127/33 88/129/33 87/130/33 
f 105/131/34 106/132/34 107/133/34 
f 105/131/34 107/133/34 108/134/34 
f 109/135/35 110/136/35 72/137/35 
f 109/135/35 72/137/35 71/138/35 
f 111/139/35 112/140/35 92/141/35 
f 111/139/35 92/141/35 91/142/35 
f 113/143/36 41/144/37 39/145/38 
f 113/143/36 39/145/38 38/146/39 
f 40/147/40 42/148/41 114/149/42 
f 40/147/40 114/149/42 37/150/43 
f 73/151/44 94/152/44 115/153/44 
f 73/151/44 115/153/44 74/154/44 
f 116/155/45 93/156/45 76/157/45 
f 116/155/45 76/157/45 75/158/45 
f 61/159/46 96/160/46 117/161/46 
f 61/159/46 117/161/46 62/162/46 
f 118/163/47 95/164/47 64/165/47 
f 118/163/47 64/165/47 63/166/47 
f 77/167/48 98/168/48 119/169/48 
f 77/167/48 119/169/48 78/170/48 
f 120/171/49 97/172/49 80/173/49 
f 120/171/49 80/173/49 79/174/49 
f 43/175/50 47/176/51 121/177/52 
f 43/175/50 121/177/52 44/178/53 
f 122/179/54 48/180/55 46/181/56 
f 122/179/54 46/181/56 45/182/57 
f 123/183/58 99/184/58 83/185/58 
f 123/183/58 83/185/58 82/186/58 
f 84/187/59 100/188/59 124/189/59 
f 84/187/59 124/189/59 81/190/59 
f 125/191/60 101/192/60 67/193/60 
f 125/191/60 67/193/60 66/194/60 
f 68/195/61 102/196/61 126/197/61 
f 68/195/61 126/197/61 65/198/61 
f 127/199/62 103/200/62 87/201/62 
f 127/199/62 87/201/62 86/202/62 
f 88/203/63 104/204/63 128/205/63 
f 88/203/63 128/205/63 85/206/63 
f 49/207/64 54/208/65 129/209/66 
f 49/207/64 129/209/66 50/210/67 
f 130/211/68 53/212/69 52/213/70 
f 130/211/68 52/213/70 51/214/71 
f 131/211/68 59/212/69 57/213/70 
f 131/211/68 57/213/70 56/214/71 
f 58/207/64 60/208/65 132/209/66 
f 58/207/64 132/209/66 55/210/67 
f 133/215/72 105/216/72 108/217/72 
f 133/215/72 108/217/72 134/218/72 
f 107/219/73 106/220/73 135/221/73 
f 107/219/73 135/221/73 136/222/73 
f 7/223/1 6/224/1 137/225/1 
f 7/223/1 137/225/1 138/226/1 
f 138/227/7 137/228/7 9/229/7 
f 138/227/7 9/229/7 8/230/7 
f 139/231/74 5/232/74 4/233/74 
f 139/231/74 4/233/74 140/234/75 
f 35/235/3 139/236/3 140/237/3 
f 35/235/3 140/237/3 36/238/3 
f 12/239/76 1/240/76 14/241/76 
f 12/239/76 14/241/76 13/242/76 
f 138/243/5 8/244/5 11/20/5 
f 138/243/5 11/20/5 7/245/5 
f 4/19/5 7/245/5 11/20/5 
f 14/246/6 3/247/6 36/248/6 
f 14/246/6 36/248/6 140/249/6 
f 14/246/6 140/249/6 4/250/6 
f 14/246/6 4/250/6 13/251/6 
f 23/252/5 141/253/5 15/254/5 
f 23/252/5 15/254/5 18/255/5 
f 142/256/77 143/257/77 144/258/77 
f 142/256/77 144/258/77 145/259/77 
f 146/260/1 147/261/1 148/262/1 
f 146/260/1 148/262/1 149/263/1 
f 16/264/76 15/265/76 150/266/76 
f 16/264/76 150/266/76 19/267/76 
f 23/268/3 22/269/3 151/270/3 
f 23/268/3 151/270/3 141/271/3 
f 150/272/4 15/273/4 141/274/4 
f 150/272/4 141/274/4 151/275/4 
f 27/276/3 26/277/3 152/278/3 
f 27/276/3 152/278/3 28/279/3 
f 20/280/11 21/281/11 18/282/11 
f 20/280/11 18/282/11 17/283/11 
f 153/284/78 25/285/78 24/286/78 
f 153/284/78 24/286/78 154/287/78 
f 155/288/1 153/289/1 154/290/1 
f 155/288/1 154/290/1 156/291/1 
f 143/292/79 152/293/79 26/294/79 
f 143/292/79 26/294/79 144/295/79 
f 25/296/80 144/295/79 26/294/79 
f 25/296/80 157/297/81 144/295/79 
f 146/298/82 157/297/81 25/296/80 
f 146/298/82 25/296/80 153/299/82 
f 153/299/82 147/300/82 146/298/82 
f 153/299/82 155/301/82 147/300/82 
f 29/302/6 156/303/6 154/304/6 
f 29/302/6 154/304/6 24/305/6 
f 136/306/83 134/307/83 108/308/83 
f 136/306/83 108/308/83 107/309/83 
f 158/310/84 109/311/84 71/312/84 
f 158/310/84 71/312/84 70/313/84 
f 72/314/85 110/315/85 159/316/85 
f 72/314/85 159/316/85 69/317/85 
f 160/318/86 111/310/86 91/319/86 
f 160/318/86 91/319/86 90/320/86 
f 92/321/87 112/316/87 161/322/87 
f 92/321/87 161/322/87 89/323/87 
f 30/42/88 162/324/88 31/43/89 
f 33/45/10 162/324/88 30/42/88 
f 32/325/77 31/326/77 163/327/77 
f 32/325/77 163/327/77 164/328/3 
f 164/329/90 163/330/90 165/331/91 
f 164/329/90 165/331/91 166/332/91 
f 165/331/91 167/333/92 166/332/91 
f 165/331/91 168/334/92 167/333/92 
f 168/335/1 33/336/1 34/337/1 
f 168/335/1 34/337/1 167/338/1 
f 145/339/93 144/340/93 157/341/93 
f 145/339/93 157/341/93 169/342/93 
f 157/341/94 146/343/94 149/344/94 
f 157/341/94 149/344/94 169/342/94 
f 162/345/81 150/346/81 151/347/79 
f 19/348/82 150/346/81 162/345/81 
f 19/348/82 162/345/81 33/349/82 
f 20/350/82 19/348/82 33/349/82 
f 20/350/82 33/349/82 168/351/82 
f 168/351/82 21/352/80 20/350/82 
f 162/345/81 151/347/79 31/353/79 
f 31/353/79 151/347/79 22/354/79 
f 31/353/79 22/354/79 163/355/79 
f 21/352/80 163/355/79 22/354/79 
f 21/352/80 165/356/81 163/355/79 
f 168/351/82 165/356/81 21/352/80 
# 200 faces

