# 3ds Max Wavefront OBJ Exporter v0.97b - (c)2007 guruware
# File Created: 15.06.2017 08:47:49

#
# object FOCAlliance2_3
#

v  0.4615 17.2478 -489.2371
v  0.4656 13.5211 -327.0931
v  -0.0756 13.3754 -327.3519
v  -0.0963 17.1488 -489.1406
v  27.1618 17.4013 -321.1886
v  17.2646 15.9873 -323.0136
v  12.2766 15.2747 -323.9334
v  -0.0979 17.3163 -489.2467
v  -0.6378 17.2853 -489.2448
v  0.4626 21.7901 -489.2459
v  -0.0865 21.7892 -489.2450
v  -0.0865 21.9079 -489.1926
v  -0.6384 21.7912 -489.2435
v  22.5971 25.8229 -175.0581
v  23.6047 25.8220 -168.4667
v  58.0566 31.3297 260.6555
v  -58.2321 31.3288 260.7188
v  -23.7775 25.8220 -168.4667
v  -22.7798 25.8246 -174.9183
v  0.3547 0.0736 244.4609
v  -0.0944 0.0000 244.5847
v  -0.0929 1.3269 188.0060
v  0.3547 1.3911 188.0782
v  0.3547 6.9490 -49.7774
v  -0.0743 6.8858 -49.7770
v  0.3547 8.7527 -126.9716
v  -0.0952 8.6866 -126.9717
v  -0.5274 0.0711 244.4653
v  -0.5274 1.3892 188.0765
v  -0.5275 6.9522 -49.7774
v  -0.5275 8.7495 -126.9717
v  -10.8686 10.4250 -127.0779
v  -0.6363 8.9329 -127.0778
v  -0.6363 7.1330 -49.7732
v  -21.9901 10.2607 -49.7732
v  -52.9627 14.6467 -41.7952
v  -48.6684 8.4958 194.3430
v  -108.2284 17.4364 188.0114
v  -58.2290 15.4355 -42.2788
v  -71.4513 17.4158 -43.4929
v  -58.1731 17.4084 -127.0767
v  -45.6657 15.5621 -127.0808
v  -0.6362 1.5701 188.0807
v  -38.5502 6.0732 234.1021
v  -0.6362 0.2501 244.5532
v  -27.3361 17.3912 -321.1890
v  -16.6161 15.8548 -323.1659
v  -0.6351 13.5238 -327.0850
v  -12.4519 15.2580 -323.9338
v  -77.3834 12.7401 194.1183
v  -94.0308 15.2748 190.8224
v  -122.2055 17.4442 275.9941
v  -97.9611 15.3040 214.4060
v  -108.2249 15.3803 275.9939
v  -109.4935 17.3781 284.3191
v  -123.2614 17.3494 282.5906
v  -52.9698 14.3757 -41.9128
v  -58.1031 15.1445 -42.3842
v  -45.5569 15.2710 -127.0713
v  -40.2949 14.4946 -127.0890
v  -16.5189 15.5635 -323.0783
v  -12.4275 14.9761 -323.8329
v  45.6576 15.3123 -127.0714
v  57.9752 15.1463 -42.3881
v  52.7995 14.3735 -41.9129
v  40.1237 14.4982 -127.0889
v  17.1696 15.6961 -322.9261
v  12.2546 14.9928 -323.8325
v  38.3770 6.0765 234.1022
v  0.4635 0.2525 244.5488
v  0.4635 1.5720 188.0824
v  48.4958 8.4948 194.3430
v  76.9816 12.6932 194.0860
v  108.0598 17.4090 188.0107
v  93.8555 15.2536 190.7874
v  97.7918 15.2811 214.4054
v  122.0378 17.4104 275.9933
v  108.0563 15.3526 275.9932
v  109.3182 17.3784 284.3193
v  123.0897 17.3492 282.5905
v  52.7898 14.6445 -41.7952
v  58.0983 15.4372 -42.2827
v  71.2801 17.4055 -43.4931
v  58.0009 17.4042 -127.0767
v  45.7640 15.6034 -127.0806
v  21.8156 10.2723 -49.7729
v  0.4635 7.1299 -49.7732
v  10.6933 10.4418 -127.0775
v  0.4635 8.9362 -127.0778
v  -0.0864 28.9906 -202.6217
v  -0.5314 28.8608 -202.6135
v  -0.6363 28.7792 -202.0448
v  -0.0864 28.8833 -202.0447
v  0.4635 28.7792 -202.0448
v  0.3522 28.8608 -202.6135
v  -33.0798 41.9598 477.8027
v  -1.1861 46.2158 495.9492
v  -0.8393 44.4602 430.4067
v  -13.3096 42.7870 427.1432
v  -60.5744 32.2401 297.9885
v  -28.3111 36.1867 286.4813
v  -31.9820 35.6880 283.8536
v  -115.5635 23.0726 284.4824
v  -63.2330 30.4922 261.6718
v  -123.2619 21.7891 282.5915
v  -120.4663 21.7891 264.9951
v  -29.2922 36.0445 282.5573
v  -51.9431 32.3505 265.4330
v  -28.0996 25.2105 -168.5536
v  -27.5823 25.0358 -174.9008
v  -50.5891 21.7892 -174.8298
v  -24.2909 25.5922 -174.9120
v  -22.5612 25.7726 -177.7867
v  -0.5294 28.5439 -214.3222
v  -4.0280 28.2462 -202.5979
v  3.8552 28.2462 -202.5979
v  0.3504 28.5438 -214.3238
v  22.3827 25.7726 -177.7871
v  27.3957 25.0340 -175.0703
v  50.3668 21.7892 -175.1411
v  24.0245 25.6015 -175.0552
v  27.9284 25.2108 -168.5589
v  62.9664 30.5347 262.3443
v  120.2936 21.7892 264.9950
v  123.0892 21.7892 282.5916
v  60.4017 32.2402 297.9885
v  115.3908 23.0726 284.4824
v  31.7958 35.6886 283.8432
v  28.1402 36.1864 286.4756
v  13.1370 42.7870 427.1432
v  32.9071 41.9598 477.8027
v  1.0135 46.2158 495.9492
v  0.6667 44.4602 430.4067
v  51.7704 32.3505 265.4330
v  29.1195 36.0445 282.5573
v  -0.0863 46.3215 495.7815
v  -0.0863 44.7028 430.5689
v  -0.6756 44.5857 430.5693
v  -1.0207 46.3329 495.7811
v  0.8480 46.3330 495.7811
v  0.5030 44.5858 430.5693
# 141 vertices

vn -0.2696 -0.9627 0.0221
vn -0.1707 -0.9851 0.0230
vn 0.1364 0.9903 0.0269
vn 0.0510 -0.5349 0.8434
vn -0.0277 -0.5349 0.8445
vn 0.0022 0.4038 0.9148
vn 0.0011 0.4038 0.9148
vn 0.1757 -0.9841 -0.0267
vn -0.1751 -0.9842 -0.0267
vn -0.1505 -0.9883 0.0231
vn -0.1554 -0.9876 0.0232
vn -0.1480 -0.9887 0.0231
vn -0.1456 -0.9891 0.0231
vn -0.1455 -0.9891 0.0231
vn -0.1454 -0.9891 0.0231
vn 0.1490 -0.9886 0.0231
vn 0.1557 -0.9875 0.0232
vn 0.1507 -0.9883 0.0231
vn 0.1454 -0.9891 0.0231
vn 0.1451 -0.9891 0.0231
vn 0.1446 -0.9892 0.0231
vn 0.1445 -0.9892 0.0230
vn 0.1441 -0.9893 0.0230
vn 0.1446 -0.9892 0.0230
vn 0.1443 -0.9893 0.0230
vn 0.1450 -0.9892 0.0222
vn 0.1449 -0.9892 0.0208
vn 0.1456 -0.9891 0.0220
vn 0.1458 -0.9890 0.0231
vn 0.1466 -0.9890 0.0204
vn 0.1460 -0.9890 0.0231
vn 0.1456 -0.9891 0.0232
vn 0.1455 -0.9891 0.0231
vn 0.1460 -0.9890 0.0229
vn 0.1441 -0.9895 0.0068
vn 0.1479 -0.9887 0.0227
vn 0.1421 -0.9898 -0.0092
vn 0.1343 -0.9901 -0.0414
vn 0.1471 -0.9890 0.0177
vn 0.1468 -0.9890 0.0190
vn 0.1161 -0.9929 -0.0256
vn 0.1454 -0.9849 -0.0943
vn 0.0701 -0.9926 -0.0992
vn -0.0038 -0.9999 0.0138
vn 0.1461 -0.9890 0.0231
vn 0.1463 -0.9890 0.0231
vn -0.1457 -0.9891 0.0231
vn -0.1458 -0.9890 0.0231
vn 0.2532 -0.9671 0.0225
vn 0.2662 -0.9637 0.0224
vn 0.2402 -0.9705 0.0225
vn -0.1390 -0.9900 -0.0220
vn -0.1290 -0.9894 -0.0667
vn -0.1487 -0.9886 0.0227
vn -0.1525 -0.9882 -0.0144
vn -0.1502 -0.9887 -0.0019
vn -0.1159 -0.9929 -0.0273
vn -0.1449 -0.9848 -0.0959
vn -0.0701 -0.9922 -0.1033
vn 0.0032 -1.0000 0.0088
vn 0.2308 0.9638 -0.1332
vn 0.2775 0.9568 -0.0861
vn 0.1830 0.9665 -0.1797
vn -0.2311 0.9628 -0.1401
vn -0.1850 0.9772 -0.1040
vn -0.2764 0.9449 -0.1757
vn 0.1233 0.9919 0.0312
vn 0.1170 0.9928 0.0272
vn 0.1208 0.9922 0.0298
vn 0.1286 0.9912 0.0329
vn 0.1341 0.9903 0.0351
vn 0.1304 0.9913 0.0159
vn 0.1437 0.9894 0.0212
vn 0.1515 0.9877 0.0396
vn 0.1572 0.9873 0.0218
vn 0.1537 0.9877 0.0301
vn 0.1759 0.9840 0.0297
vn 0.1378 0.9904 0.0136
vn 0.1417 0.9896 0.0258
vn 0.1545 0.9878 0.0190
vn 0.1740 0.9842 0.0325
vn 0.1720 0.9846 0.0325
vn 0.1398 0.9899 0.0222
vn 0.2023 0.9790 0.0235
vn 0.1581 0.9870 0.0275
vn 0.1594 0.9866 0.0351
vn 0.1634 0.9861 0.0294
vn 0.2166 0.9759 0.0258
vn -0.0019 0.9997 0.0254
vn -0.0014 0.9997 0.0247
vn -0.2038 0.9787 0.0235
vn 0.1664 0.9858 0.0250
vn 0.2271 0.9735 0.0264
vn 0.1643 0.9861 0.0250
vn -0.1663 0.9858 0.0250
vn -0.1642 0.9861 0.0250
vn -0.1587 0.9869 0.0279
vn -0.2182 0.9756 0.0259
vn -0.2289 0.9731 0.0264
vn -0.1636 0.9861 0.0296
vn -0.1538 0.9876 0.0325
vn -0.1438 0.9892 0.0271
vn -0.1595 0.9866 0.0353
vn -0.1523 0.9878 0.0309
vn -0.1572 0.9872 0.0281
vn -0.1519 0.9881 0.0241
vn -0.1652 0.9862 -0.0087
vn -0.1483 0.9889 0.0138
vn -0.1871 0.9785 -0.0863
vn -0.1514 0.9880 0.0293
vn -0.1353 0.9906 0.0202
vn -0.1306 0.9913 0.0159
vn -0.1258 0.9916 0.0306
vn -0.1222 0.9920 0.0315
vn -0.1209 0.9923 0.0281
vn -0.1259 0.9917 0.0272
vn -0.1409 0.9897 0.0265
vn -0.1381 0.9903 0.0134
vn 0.0917 0.9955 0.0257
vn 0.1947 0.9806 0.0243
vn -0.0123 0.9996 0.0267
vn -0.0917 0.9954 0.0262
vn -0.1947 0.9805 0.0273
vn 0.0123 0.9996 0.0248
# 124 vertex normals

vt 3.9855 19.9251 0.0000
vt 3.9855 14.6878 0.0000
vt 3.9994 14.6915 0.0000
vt 4.0001 19.9221 0.0000
vt 3.9850 19.9220 0.0000
vt 3.1189 14.4923 0.0000
vt 3.4388 14.5513 0.0000
vt 3.6001 14.5810 0.0000
vt 4.0002 19.9255 0.0000
vt 3.9822 19.9255 0.0000
vt 3.9996 19.9255 0.0000
vt 3.9997 19.9221 0.0000
vt 3.9820 19.9255 0.0000
vt 3.9998 19.9255 0.0000
vt 3.9998 19.9220 0.0000
vt 3.9858 19.9220 0.0000
vt 4.0000 19.9220 0.0000
vt 4.0000 19.9255 0.0000
vt 0.2937 -1.1222 0.0000
vt 0.2846 -1.0623 0.0000
vt -0.0287 2.8396 0.0000
vt 1.0287 2.8402 0.0000
vt 0.7154 -1.0623 0.0000
vt 0.7063 -1.1210 0.0000
vt 3.9855 -3.7950 0.0000
vt 4.0001 -3.7990 0.0000
vt 4.0000 -1.9698 0.0000
vt 3.9855 -1.9722 0.0000
vt 3.9855 5.7176 0.0000
vt 3.9994 5.7176 0.0000
vt 3.9855 8.2133 0.0000
vt 4.0001 8.2133 0.0000
vt 3.9998 -1.9698 0.0000
vt 3.9997 -3.7990 0.0000
vt 3.9857 -3.7951 0.0000
vt 3.9857 -1.9721 0.0000
vt 4.0004 5.7176 0.0000
vt 3.9857 5.7176 0.0000
vt 3.9997 8.2133 0.0000
vt 3.9857 8.2133 0.0000
vt 3.6514 8.2167 0.0000
vt 3.9822 8.2167 0.0000
vt 3.9822 5.7175 0.0000
vt 3.2919 5.7175 0.0000
vt 2.2905 5.4596 0.0000
vt 2.4294 -2.1747 0.0000
vt 0.5038 -1.9700 0.0000
vt 2.1203 5.4752 0.0000
vt 1.6928 5.5145 0.0000
vt 2.1221 8.2167 0.0000
vt 2.5264 8.2168 0.0000
vt 3.9822 -1.9722 0.0000
vt 2.7565 -3.4601 0.0000
vt 3.9822 -3.7980 0.0000
vt 3.1190 14.4923 0.0000
vt 3.4656 14.5562 0.0000
vt 3.9822 14.6829 0.0000
vt 3.6002 14.5810 0.0000
vt 1.5010 -2.1674 0.0000
vt 0.9628 -2.0609 0.0000
vt 0.0519 -4.8144 0.0000
vt 0.8357 -2.8233 0.0000
vt 0.5039 -4.8144 0.0000
vt 0.4629 -5.0836 0.0000
vt 0.0178 -5.0277 0.0000
vt 2.2903 5.4634 0.0000
vt 2.1243 5.4786 0.0000
vt 2.5300 8.2165 0.0000
vt 2.7001 8.2171 0.0000
vt 3.4687 14.5534 0.0000
vt 3.6010 14.5777 0.0000
vt 2.5209 8.2165 0.0000
vt 2.1227 5.4787 0.0000
vt 2.2900 5.4634 0.0000
vt 2.6998 8.2171 0.0000
vt 3.4419 14.5484 0.0000
vt 3.6008 14.5777 0.0000
vt 4.0003 14.6915 0.0000
vt 3.9858 14.6876 0.0000
vt 3.9858 19.9221 0.0000
vt 3.9820 14.6831 0.0000
vt 3.9820 19.9252 0.0000
vt 2.7563 -3.4601 0.0000
vt 3.9820 -3.7978 0.0000
vt 3.9820 -1.9723 0.0000
vt 2.4291 -2.1747 0.0000
vt 1.5082 -2.1664 0.0000
vt 0.5035 -1.9700 0.0000
vt 0.9627 -2.0597 0.0000
vt 0.8354 -2.8233 0.0000
vt 0.0516 -4.8144 0.0000
vt 0.5036 -4.8144 0.0000
vt 0.4628 -5.0836 0.0000
vt 0.0176 -5.0277 0.0000
vt 2.2903 5.4596 0.0000
vt 2.1187 5.4753 0.0000
vt 1.6925 5.5145 0.0000
vt 2.1218 8.2167 0.0000
vt 2.5175 8.2168 0.0000
vt 3.2917 5.7175 0.0000
vt 3.9820 5.7175 0.0000
vt 3.6513 8.2167 0.0000
vt 3.9820 8.2167 0.0000
vt 4.0000 10.6440 0.0000
vt 3.9858 10.6440 0.0000
vt 3.9822 10.6404 0.0000
vt 4.0000 10.6404 0.0000
vt 3.9998 10.6404 0.0000
vt 3.9820 10.6404 0.0000
vt 3.9856 10.6440 0.0000
vt 3.9998 10.6440 0.0000
vt 0.8000 4.8140 0.0000
vt 0.5100 4.9790 0.0000
vt 0.5068 4.3831 0.0000
vt 0.6202 4.3534 0.0000
vt 1.0500 3.1790 0.0000
vt 0.7566 3.0744 0.0000
vt 0.7900 3.0505 0.0000
vt 1.5500 3.0562 0.0000
vt 1.0742 2.8488 0.0000
vt 1.6200 3.0390 0.0000
vt 1.5946 2.8790 0.0000
vt 0.7656 3.0387 0.0000
vt 0.9715 2.8830 0.0000
vt 0.7547 -1.0631 0.0000
vt 0.7500 -1.1208 0.0000
vt 0.9592 -1.1202 0.0000
vt 0.5050 -3.9790 0.0000
vt 0.7201 -1.1209 0.0000
vt 0.7044 -1.1470 0.0000
vt 0.5040 -1.4792 0.0000
vt 0.5000 -1.3729 0.0000
vt 0.5000 -3.9786 0.0000
vt 0.4950 -3.9790 0.0000
vt 0.5358 -1.3726 0.0000
vt 0.5040 -1.3728 0.0000
vt 0.4642 -1.3726 0.0000
vt 0.4960 -1.4793 0.0000
vt 0.4960 -1.3728 0.0000
vt 0.2957 -1.1470 0.0000
vt 0.2501 -1.1223 0.0000
vt 0.0412 -1.1230 0.0000
vt 0.2808 -1.1222 0.0000
vt 0.2453 -1.0631 0.0000
vt -0.0733 2.8549 0.0000
vt -0.5946 2.8790 0.0000
vt -0.6200 3.0390 0.0000
vt -0.0500 3.1790 0.0000
vt -0.5500 3.0562 0.0000
vt 0.2101 3.0504 0.0000
vt 0.2433 3.0744 0.0000
vt 0.3798 4.3534 0.0000
vt 0.2000 4.8140 0.0000
vt 0.4900 4.9790 0.0000
vt 0.4932 4.3831 0.0000
vt 0.0285 2.8830 0.0000
vt 0.2344 3.0387 0.0000
vt 4.0000 -11.9201 0.0000
vt 4.0000 -9.8118 0.0000
vt 3.9809 -9.8118 0.0000
vt 3.9698 -11.9201 0.0000
vt 3.9696 -11.9201 0.0000
vt 3.9807 -9.8118 0.0000
vt 3.9998 -9.8118 0.0000
vt 3.9998 -11.9201 0.0000
# 165 texture coords

g FOCAlliance2_3
s 1
f 1/1/1 2/2/1 3/3/1 
f 4/4/2 1/5/2 3/3/2 
f 5/6/3 6/7/3 7/8/3 
f 1/5/4 4/4/4 8/9/4 
f 9/10/5 8/11/5 4/12/5 
f 10/13/6 11/14/6 12/15/6 
f 13/16/7 12/17/7 11/18/7 
f 14/19/8 15/20/8 16/21/8 
f 17/22/9 18/23/9 19/24/9 
f 20/25/10 21/26/11 22/27/12 
f 22/27/12 23/28/13 20/25/10 
f 24/29/13 23/28/13 22/27/12 
f 22/27/12 25/30/14 24/29/13 
f 26/31/14 24/29/13 25/30/14 
f 25/30/14 27/32/15 26/31/14 
f 22/33/16 21/34/17 28/35/18 
f 28/35/18 29/36/19 22/33/16 
f 25/37/20 22/33/16 29/36/19 
f 29/36/19 30/38/21 25/37/20 
f 27/39/22 25/37/20 30/38/21 
f 30/38/21 31/40/23 27/39/22 
f 32/41/24 33/42/25 34/43/26 
f 34/43/26 35/44/27 32/41/24 
f 36/45/28 35/44/27 34/43/26 
f 36/45/28 34/43/26 37/46/29 
f 38/47/30 36/45/28 37/46/29 
f 38/47/30 39/48/31 36/45/28 
f 38/47/30 40/49/31 39/48/31 
f 39/48/31 40/49/31 41/50/31 
f 41/50/31 42/51/31 39/48/31 
f 34/43/26 43/52/32 37/46/29 
f 44/53/32 37/46/29 43/52/32 
f 43/52/32 45/54/33 44/53/32 
f 42/51/31 41/50/31 46/55/34 
f 46/55/34 47/56/35 42/51/31 
f 46/55/34 9/10/36 47/56/35 
f 9/10/36 48/57/37 47/56/35 
f 48/57/37 49/58/38 47/56/35 
f 38/47/30 37/46/29 50/59/39 
f 38/47/30 50/59/39 51/60/40 
f 52/61/41 38/47/30 51/60/40 
f 52/61/41 51/60/40 53/62/31 
f 52/61/41 53/62/31 54/63/42 
f 52/61/41 54/63/42 55/64/43 
f 55/64/43 56/65/44 52/61/41 
f 51/60/40 50/59/39 53/62/31 
f 57/66/31 58/67/31 59/68/31 
f 59/68/31 60/69/45 57/66/31 
f 60/69/45 59/68/31 61/70/45 
f 61/70/45 62/71/46 60/69/45 
f 63/72/13 64/73/13 65/74/13 
f 65/74/13 66/75/13 63/72/13 
f 67/76/47 63/72/13 66/75/13 
f 66/75/13 68/77/48 67/76/47 
f 4/12/49 3/78/50 48/79/49 
f 48/79/49 9/80/51 4/12/49 
f 5/6/52 7/8/53 2/81/52 
f 1/82/54 5/6/52 2/81/52 
f 69/83/13 70/84/13 71/85/13 
f 71/85/13 72/86/13 69/83/13 
f 73/87/55 72/86/13 71/85/13 
f 74/88/56 73/87/55 71/85/13 
f 74/88/56 75/89/55 73/87/55 
f 73/87/55 75/89/55 76/90/13 
f 77/91/57 76/90/13 75/89/55 
f 77/91/57 78/92/58 76/90/13 
f 79/93/59 78/92/58 77/91/57 
f 77/91/57 80/94/60 79/93/59 
f 74/88/56 71/85/13 81/95/13 
f 74/88/56 81/95/13 82/96/13 
f 83/97/13 74/88/56 82/96/13 
f 84/98/13 83/97/13 82/96/13 
f 82/96/13 85/99/13 84/98/13 
f 5/6/13 84/98/13 85/99/13 
f 85/99/13 6/7/13 5/6/13 
f 71/85/13 86/100/13 81/95/13 
f 71/85/13 87/101/13 86/100/13 
f 88/102/13 86/100/13 87/101/13 
f 87/101/13 89/103/13 88/102/13 
f 74/88/56 77/91/57 75/89/55 
f 90/104/61 91/105/62 92/106/61 
f 92/106/61 93/107/63 90/104/61 
f 93/108/64 94/109/65 95/110/64 
f 95/110/64 90/111/66 93/108/64 
f 96/112/67 97/113/68 98/114/69 
f 98/114/69 99/115/70 96/112/67 
f 100/116/71 96/112/67 99/115/70 
f 100/116/71 99/115/70 101/117/72 
f 100/116/71 101/117/72 102/118/73 
f 103/119/74 100/116/71 102/118/73 
f 103/119/74 102/118/73 104/120/75 
f 105/121/76 103/119/74 104/120/75 
f 106/122/77 105/121/76 104/120/75 
f 101/117/72 107/123/78 102/118/73 
f 102/118/73 107/123/78 108/124/79 
f 108/124/79 17/22/80 102/118/73 
f 102/118/73 17/22/80 104/120/75 
f 17/22/80 109/125/81 104/120/75 
f 106/122/77 104/120/75 109/125/81 
f 106/122/77 109/125/81 110/126/82 
f 111/127/83 106/122/77 110/126/82 
f 13/128/84 111/127/83 110/126/82 
f 17/22/80 19/24/85 109/125/81 
f 19/24/85 112/129/86 109/125/81 
f 112/129/86 110/126/82 109/125/81 
f 110/126/82 112/129/86 113/130/87 
f 13/128/84 110/126/82 113/130/87 
f 13/128/84 113/130/87 114/131/88 
f 13/128/84 114/131/88 90/132/89 
f 90/132/89 12/133/90 13/128/84 
f 10/134/91 12/133/90 90/132/89 
f 112/129/86 19/24/85 113/130/87 
f 113/130/87 19/24/85 114/131/88 
f 19/24/85 115/135/92 114/131/88 
f 115/135/92 91/136/93 114/131/88 
f 114/131/88 91/136/93 90/132/89 
f 19/24/85 18/23/94 115/135/92 
f 116/137/95 15/20/96 14/19/97 
f 116/137/95 14/19/97 117/138/98 
f 95/139/99 116/137/95 117/138/98 
f 90/132/89 95/139/99 117/138/98 
f 90/132/89 117/138/98 10/134/91 
f 118/140/100 10/134/91 117/138/98 
f 10/134/91 118/140/100 119/141/101 
f 120/142/102 10/134/91 119/141/101 
f 14/19/97 118/140/100 117/138/98 
f 118/140/100 14/19/97 121/143/103 
f 118/140/100 121/143/103 119/141/101 
f 119/141/101 121/143/103 122/144/104 
f 120/142/102 119/141/101 122/144/104 
f 120/142/102 122/144/104 123/145/105 
f 124/146/106 120/142/102 123/145/105 
f 125/147/107 124/146/106 123/145/105 
f 126/148/108 125/147/107 123/145/105 
f 126/148/108 127/149/109 125/147/107 
f 121/143/103 14/19/97 122/144/104 
f 14/19/97 16/21/110 122/144/104 
f 16/21/110 123/145/105 122/144/104 
f 126/148/108 123/145/105 16/21/110 
f 126/148/108 16/21/110 128/150/111 
f 126/148/108 128/150/111 129/151/112 
f 126/148/108 129/151/112 130/152/113 
f 131/153/114 126/148/108 130/152/113 
f 132/154/115 131/153/114 130/152/113 
f 130/152/113 133/155/116 132/154/115 
f 128/150/111 16/21/110 134/156/117 
f 134/156/117 135/157/118 128/150/111 
f 128/150/111 135/157/118 129/151/112 
f 136/158/119 137/159/120 138/160/119 
f 138/160/119 139/161/121 136/158/119 
f 140/162/122 141/163/123 137/164/122 
f 137/164/122 136/165/124 140/162/122 
# 152 faces

